<?xml version="1.0"?><svg width="533.3333333333333" height="533.3333333333333" xmlns="http://www.w3.org/2000/svg">
 <title>blue medal</title>

 <g>
  <title>Layer 1</title>
  <path fill="#00007f" fill-rule="evenodd" stroke="#000000" stroke-width="3.75" id="path866" d="m19.722652,420.496735c0,0 65.258602,-34.090027 117.854893,-85.712006c17.532013,-23.376007 57.466003,-81.817017 57.466003,-81.817017l65.259003,33.115997c0,0 -46.753006,76.947021 -101.296997,125.647003c-27.272003,25.324005 -107.140602,60.389008 -107.140602,60.389008c0,0 24.350098,-45.778992 24.350098,-49.674988c0,-3.895996 -48.700298,-2.921997 -56.492397,-1.947998z"/>
  <path fill="#00007f" fill-rule="evenodd" stroke="#000000" stroke-width="3.75" id="path867" d="m267.120544,288.031708c0,0.97403 67.205994,-30.194 66.231995,-30.194c-0.973999,0 37.987,80.843018 62.337006,110.063019c28.246002,33.115997 41.882019,42.855988 58.440002,53.570007c12.662018,5.845001 24.350006,11.688995 24.350006,11.688995c0,0 -48.700012,5.843994 -50.64801,2.921997c-1.947998,-2.921997 -5.843994,11.687988 -0.973999,27.272003c4.869995,9.73999 1.947998,15.583984 10.71402,28.246002c-0.973999,0.973999 -77.921021,-52.596008 -110.062012,-102.27002c-37.013,-56.492981 -59.415009,-101.298004 -60.389008,-101.298004z"/>
  <path fill="none" fill-rule="evenodd" stroke="#000000" stroke-width="6.25" id="path857" d="m434.649658,166.281342c0,-88.220383 -74.787354,-159.737143 -167.042206,-159.737143c-92.254883,0 -167.042213,71.51676 -167.042213,159.737143c-0.05896,88.260086 74.745461,159.838959 167.041847,159.83902c92.296356,0.000092 167.100891,-71.578659 167.042084,-159.83876l-167.041718,-0.000259l167.042206,0z"/>
  <path fill="#00007f" fill-rule="evenodd" stroke-width="1pt" id="path863" d="m433.700775,167.255554c0,-87.144623 -73.697021,-157.789311 -164.606873,-157.789311c-90.909897,0 -164.606911,70.644689 -164.606911,157.789311c-0.058098,87.183838 73.655739,157.889893 164.606544,157.889954c90.950745,0.000092 164.664734,-70.705841 164.606781,-157.889709l-164.606415,-0.000244l164.606873,0z"/>
  <polygon fill="#007fff" fill-rule="evenodd" stroke="#000000" stroke-width="3.93999" points="416.702 225.695 376.752 246.749 366.308 289.751 320.884 288.561 289.727 320.724 251.002 297.608 207.482 310.313 185.83 271.466 141.607 261.31 142.832 217.141 109.756 186.844 133.528 149.187 120.461 106.868 160.411 85.8141 170.856 42.8115 216.278 44.002 247.435 11.8387 286.16 34.9546 329.681 22.2488 351.332 61.0961 395.555 71.2522 394.331 115.422 427.407 145.719 403.635 183.376 416.702 225.695" id="polygon862"/>
  <path fill="#007fff" fill-rule="evenodd" stroke="#000000" stroke-width="3.75" id="path865" d="m252.341568,289.661407c-67.469284,-9.642426 -115.230133,-70.181335 -108.252487,-137.214569c6.977646,-67.033249 66.209015,-116.689636 134.250946,-112.548809c68.041962,4.140827 120.664093,60.604321 119.270844,127.977383c-1.39328,67.373108 -56.305817,121.66362 -124.462097,123.052261"/>
 </g>
</svg>