<?xml version="1.0"?><svg width="640" height="480" xmlns="http://www.w3.org/2000/svg" xmlns:xlink="http://www.w3.org/1999/xlink">
 <title>weight lifter</title>
 <metadata id="metadata7">image/svg+xmlFoomotudo</metadata>
 <g>
  <title>Layer 1</title>
  <g display="none" transform="translate(-48.6139, -5.47371)" id="layer1">
   <image xlink:href="394523529.jpg" width="284" height="400" id="image2398" x="36.926441" y="1.192846"/>
  </g>
  <g id="layer2">
   <path fill="#000000" fill-rule="evenodd" stroke="#000000" stroke-width="1px" id="path2403" d="m192.019012,421.235138l52.658234,-0.506317l-8.607605,-24.81015l-5.063293,-25.316437l6.075958,-18.227844l-5.569611,-17.721527l26.835449,-2.02533l30.886078,-9.113922l19.240479,26.835449l20.759521,15.696198l24.81012,10.632904l49.113922,14.177246l3.544312,10.126556l-13.670898,12.151917l1.012665,6.582275l17.721527,1.518982l11.645569,-8.101257l17.215179,-13.164551l-12.658234,-18.734192l-13.670868,-3.544312l-26.329132,-13.164551l-10.126587,-10.126587l-25.822784,-4.050629l-12.658234,-26.835449l-8.607574,-13.164551l-6.582306,-19.746826l-8.101257,-12.658203l-8.101257,-4.050659l-5.569611,-16.202515l5.063263,-26.835449l3.037994,-22.278473l0.506317,-15.696213l-5.569611,-25.822784l0.506348,-14.177216l-6.582306,-16.20253l-8.607574,13.164551l-3.544312,18.227859l-0.506317,24.303787l-3.544312,-0.506332l1.518982,-31.392395l5.569611,-17.721512l-14.177216,0l-11.139221,7.088593l-2.531677,12.658234l-3.544281,15.18988l4.556946,9.113907l3.037994,5.063293l7.088593,-1.01265l2.02533,5.063293l-13.670898,5.569626l-9.113922,10.126572l-1.518982,13.164566l1.012665,18.734161l6.075958,18.227859l6.582275,15.696198l-1.519012,9.113922l-17.215179,6.582306l-17.215195,9.113892l-15.189865,10.632904l-5.063293,3.544312l-2.025314,19.240509l3.544296,13.164551l5.063293,26.835449l0,17.215179l0,8.607605l-16.708862,7.088593l-8.101273,5.063293l1.518997,7.59494z"/>
   <path fill="#000000" fill-rule="evenodd" stroke="#000000" stroke-width="1px" id="path3175" d="m261.551025,151.809891l3.787903,-7.57576l4.545441,-3.282837l6.818207,-1.515137l-1.515167,-12.373749l0.505066,-13.13131l1.010101,-4.040405l6.818176,-2.777786l0.505035,-10.101006l-5.808075,-5.050507l-3.282837,1.010101l-3.535339,3.787888l-1.262634,4.292923l-3.787872,2.020203l-0.252533,5.303032l-1.262634,8.585861l0,6.313126l-1.010101,6.818184l-2.777771,9.090912l0.505035,12.626266z"/>
   <path fill="#000000" fill-rule="evenodd" stroke-width="1px" id="path3177" d="m303.470245,141.45636c-9.491699,-24.647102 1.902588,-55.005669 26.575043,-65.456421c21.502716,-9.144501 52.250305,-5.424103 63.18576,17.749008c14.757019,27.01432 3.402924,66.69812 -27.08609,76.776886c-22.686523,7.946487 -47.53421,-4.807114 -59.232178,-24.80687l-1.708374,-2.141754l-1.734161,-2.12085l0,0z"/>
   <path fill="#000000" fill-rule="evenodd" stroke-width="1px" id="path3179" d="m220.136902,137.668457c7.326492,3.989258 15.0289,9.909973 23.89209,7.986694c4.313141,-0.29007 9.04393,1.402222 13.020386,-0.864182c2.476105,-3.927139 0.213837,-9.324219 2.855896,-13.632782c1.880219,-5.413925 3.493591,-11.151268 2.428864,-16.919144c-0.407318,-6.772583 1.771942,-13.735062 6.30426,-18.832458c1.579041,-6.282776 10.361877,-10.325325 15.381561,-5.354195c5.930939,5.082344 5.188385,15.508476 -1.281036,19.808701c-4.937988,5.441643 -2.563141,13.19651 -3.403229,19.773186c0.662109,7.030975 6.327301,-0.75441 7.734985,-3.485443c9.671417,-12.976486 10.620636,-30.359604 7.000977,-45.647339c-1.007843,-6.283081 -5.413452,-11.206451 -8.947845,-16.264107c-2.044556,-3.10223 -4.712616,-5.621258 -8.115936,-7.169018c-9.898376,-5.533852 -21.455078,-7.864792 -32.731171,-6.828632c-6.550491,-0.019199 -13.61676,0.173492 -19.058273,4.344242c-6.422897,3.901199 -11.511078,9.663021 -14.970108,16.291279c-6.757751,10.484512 -10.008118,23.345772 -7.954651,35.736992c0.480042,5.314613 2.81012,10.176376 5.851257,14.47226c3.466217,5.882439 7.253174,11.636833 11.991974,16.583946z"/>
   <path fill="#000000" fill-rule="evenodd" stroke="#000000" stroke-width="1px" id="path3181" d="m263.113129,102.939102l38.892334,6.130806l5.172882,-6.130806l-45.406311,-6.322403l-3.257019,4.789688l6.130829,1.915878l-1.532715,-0.383163z"/>
   <path fill="#ffffff" fill-rule="evenodd" stroke-width="3.02" stroke-linecap="round" stroke-linejoin="round" stroke-miterlimit="4" d="m356.686401,116.364243a7.084896,6.997419 0 1 1-14.169769,0a7.084896,6.997419 0 1 114.169769,0z" id="path3198"/>
   <path fill="#ffffff" fill-rule="evenodd" stroke-width="3.02" stroke-linecap="round" stroke-linejoin="round" stroke-miterlimit="4" id="path3200" d="m258.109406,95.801788a10.192098,10.066294 0 1 1-20.384186,0a10.192098,10.066294 0 1 120.384186,0z"/>
   <path fill="#000000" fill-rule="evenodd" stroke-width="1px" id="path2401" d="m260,95.27272l-12.925201,-1.819321c-2.756454,-0.388 -4.066849,5.558319 -1.636337,5.906433l12.657059,1.812767l1.90448,-5.899879z"/>
  </g>
 </g>
</svg>