<?xml version="1.0"?><svg width="640" height="480" xmlns="http://www.w3.org/2000/svg">
 <g>
  <title>Layer 1</title>
  <g id="Layer_1">
   <g>
    <g id="surface0">
     <path d="m149.604996,93.889c7.244003,-0.690002 14.895004,2.296997 19.438004,8.056999c3.180008,3.594002 4.585999,8.371002 5.108994,13.054001c-0.269989,5.485001 -2.231995,11.042 -6.151993,14.996002c-5.910004,6.479996 -15.992004,8.679001 -24.100998,5.380005c-11.093002,-3.80101 -17.639,-17.955009 -12.130005,-28.611008c3.063004,-7.164001 10.194,-11.964996 17.835999,-12.875999z" stroke-miterlimit="10" stroke-width="0.1" stroke="#000000" fill="none"/>
     <path d="m149.604996,93.889c7.244003,-0.690002 14.895004,2.296997 19.438004,8.056999c3.180008,3.594002 4.585999,8.371002 5.108994,13.054001c-0.269989,5.485001 -2.231995,11.042 -6.151993,14.996002c-5.910004,6.479996 -15.992004,8.679001 -24.100998,5.380005c-11.093002,-3.80101 -17.639,-17.955009 -12.130005,-28.611008c3.063004,-7.164001 10.194,-11.964996 17.835999,-12.875999z"/>
     <path d="m119.541,135.5c2.561996,-2.074997 6.061996,-1.061996 8.895996,-0.158005c1.007004,3.784012 2.577011,7.667999 1.626999,11.643005c-1.302002,7.970001 -7.003998,14.108994 -12.546997,19.552994c-16.110001,14.221008 -32.211998,28.452011 -48.307999,42.689011c-5.516998,4.843994 -10.508999,10.261993 -16.091,15.026993c23.681004,-0.302994 47.381001,0.313995 71.047001,-0.462997c-0.612999,-15.261993 -0.811005,-30.570007 -0.167,-45.833008c0.68,-5.047989 2.101997,-13.574997 9.100006,-12.275986c6.803986,3.521988 8.610992,11.815994 12.059998,18.07399c4.534988,7.604004 3.440994,16.807999 3.526001,25.266006c-0.025009,4.895004 0.287994,9.785004 0.217987,14.681992c2.093002,0.088013 4.190002,0.119003 6.289001,0.143005c0.188004,-10.319 -2.888992,-21.613998 2.570999,-31.091995c2.317001,-5.417999 4.789001,-11.084 9.414001,-14.957001c2.212006,-1.01001 5.195999,-0.667999 6.615005,1.479996c3.182007,4.169998 3.298996,9.692993 3.779999,14.701996c0.537994,9.852997 1.160995,19.70401 1.324997,29.572998c23.44101,0.09201 46.893005,0.195007 70.326004,-0.14299c-21.011002,-20.238007 -43.292007,-39.10701 -64.876999,-58.723007c-5.589996,-5.556992 -10.623001,-12.502991 -10.953003,-20.667999c0.087006,-2.970001 0.688004,-6.024002 2.089996,-8.666c1.92601,-1.125 4.285004,-0.877991 6.431,-1.080002c7.480011,3.730011 13.049011,10.180008 18.409012,16.414001c6.042999,7.628998 11.608994,15.617996 17.514999,23.354004c6.664001,8.654999 13.945999,16.817001 20.507996,25.556c5.884003,7.895996 11.798004,15.768005 17.654999,23.684998c1.269989,0.046005 2.540985,0.089005 3.817993,0.128006c0.03302,-11.848007 -0.062988,-23.695007 0.050018,-35.542999c6.957977,-0.137009 13.919983,0.050995 20.879974,-0.109009c0.664001,2.715012 0.409027,5.52301 0.436005,8.291c-0.018005,24.253998 0.019012,48.51001 -0.018005,72.764999c-7.110992,0.067017 -14.222992,0.065002 -21.330994,0.001007c-0.037994,-13.145996 -0.000977,-26.290009 -0.019989,-39.434998c-26.972,0.251999 -53.947006,0.266998 -80.925018,0.256989c0.05101,10.154007 -0.144989,20.455002 -2.703995,30.341003c-0.806,3.533997 -3.337006,7.037018 -7.067993,7.766998c-3.531006,0.270996 -7.388,-1.65799 -8.587006,-5.143005c-4.570007,-10.253983 -4.824005,-21.745987 -5.268005,-32.778992c-2.013992,-0.003998 -4.026993,-0.007996 -6.037994,-0.013c-0.026001,9.03801 -0.302994,18.175003 -2.376999,27.011993c-1.182999,3.968018 -2.524002,8.699005 -6.828003,10.300018c-4.031998,2.057983 -8.283005,-1.231995 -10.322006,-4.588013c-3.903992,-10.442993 -4.36599,-21.716995 -5.376991,-32.707001c-28.695,0.682007 -57.425995,0.221008 -86.138,0.354004c-0.014,12.544998 0.018997,25.089996 -0.017002,37.63501c-7.109999,0.065979 -14.220999,0.065002 -21.330999,0c-0.073,-26.859009 0.07,-53.720016 -0.071999,-80.578018c6.817999,-0.878998 13.759998,-0.270004 20.625998,-0.363998c0.185001,0.192993 0.554001,0.578995 0.738003,0.772003c0.132,12.241989 0.011997,24.490997 0.050999,36.735992c2.594002,0.003998 5.188999,0.012009 7.782001,-0.084991c5.998997,-7.736008 11.875,-15.567001 17.701,-23.433014c9.493999,-12.200989 19.743,-23.802994 28.896,-36.269989c7.920006,-10.544998 15.532005,-22.056 26.984009,-29.093994z" stroke-miterlimit="10" stroke-width="0.1" stroke="#000000" fill="none"/>
     <path d="m119.541,135.5c2.561996,-2.074997 6.061996,-1.061996 8.895996,-0.158005c1.007004,3.784012 2.577011,7.667999 1.626999,11.643005c-1.302002,7.970001 -7.003998,14.108994 -12.546997,19.552994c-16.110001,14.221008 -32.211998,28.452011 -48.307999,42.689011c-5.516998,4.843994 -10.508999,10.261993 -16.091,15.026993c23.681004,-0.302994 47.381001,0.313995 71.047001,-0.462997c-0.612999,-15.261993 -0.811005,-30.570007 -0.167,-45.833008c0.68,-5.047989 2.101997,-13.574997 9.100006,-12.275986c6.803986,3.521988 8.610992,11.815994 12.059998,18.07399c4.534988,7.604004 3.440994,16.807999 3.526001,25.266006c-0.025009,4.895004 0.287994,9.785004 0.217987,14.681992c2.093002,0.088013 4.190002,0.119003 6.289001,0.143005c0.188004,-10.319 -2.888992,-21.613998 2.570999,-31.091995c2.317001,-5.417999 4.789001,-11.084 9.414001,-14.957001c2.212006,-1.01001 5.195999,-0.667999 6.615005,1.479996c3.182007,4.169998 3.298996,9.692993 3.779999,14.701996c0.537994,9.852997 1.160995,19.70401 1.324997,29.572998c23.44101,0.09201 46.893005,0.195007 70.326004,-0.14299c-21.011002,-20.238007 -43.292007,-39.10701 -64.876999,-58.723007c-5.589996,-5.556992 -10.623001,-12.502991 -10.953003,-20.667999c0.087006,-2.970001 0.688004,-6.024002 2.089996,-8.666c1.92601,-1.125 4.285004,-0.877991 6.431,-1.080002c7.480011,3.730011 13.049011,10.180008 18.409012,16.414001c6.042999,7.628998 11.608994,15.617996 17.514999,23.354004c6.664001,8.654999 13.945999,16.817001 20.507996,25.556c5.884003,7.895996 11.798004,15.768005 17.654999,23.684998c1.269989,0.046005 2.540985,0.089005 3.817993,0.128006c0.03302,-11.848007 -0.062988,-23.695007 0.050018,-35.542999c6.957977,-0.137009 13.919983,0.050995 20.879974,-0.109009c0.664001,2.715012 0.409027,5.52301 0.436005,8.291c-0.018005,24.253998 0.019012,48.51001 -0.018005,72.764999c-7.110992,0.067017 -14.222992,0.065002 -21.330994,0.001007c-0.037994,-13.145996 -0.000977,-26.290009 -0.019989,-39.434998c-26.972,0.251999 -53.947006,0.266998 -80.925018,0.256989c0.05101,10.154007 -0.144989,20.455002 -2.703995,30.341003c-0.806,3.533997 -3.337006,7.037018 -7.067993,7.766998c-3.531006,0.270996 -7.388,-1.65799 -8.587006,-5.143005c-4.570007,-10.253983 -4.824005,-21.745987 -5.268005,-32.778992c-2.013992,-0.003998 -4.026993,-0.007996 -6.037994,-0.013c-0.026001,9.03801 -0.302994,18.175003 -2.376999,27.011993c-1.182999,3.968018 -2.524002,8.699005 -6.828003,10.300018c-4.031998,2.057983 -8.283005,-1.231995 -10.322006,-4.588013c-3.903992,-10.442993 -4.36599,-21.716995 -5.376991,-32.707001c-28.695,0.682007 -57.425995,0.221008 -86.138,0.354004c-0.014,12.544998 0.018997,25.089996 -0.017002,37.63501c-7.109999,0.065979 -14.220999,0.065002 -21.330999,0c-0.073,-26.859009 0.07,-53.720016 -0.071999,-80.578018c6.817999,-0.878998 13.759998,-0.270004 20.625998,-0.363998c0.185001,0.192993 0.554001,0.578995 0.738003,0.772003c0.132,12.241989 0.011997,24.490997 0.050999,36.735992c2.594002,0.003998 5.188999,0.012009 7.782001,-0.084991c5.998997,-7.736008 11.875,-15.567001 17.701,-23.433014c9.493999,-12.200989 19.743,-23.802994 28.896,-36.269989c7.920006,-10.544998 15.532005,-22.056 26.984009,-29.093994z"/>
    </g>
   </g>
  </g>
 </g>
</svg>